<?xml version="1.0" encoding="utf-8"?>
<!-- Generator: Adobe Illustrator 18.0.0, SVG Export Plug-In . SVG Version: 6.00 Build 0)  -->
<!DOCTYPE svg PUBLIC "-//W3C//DTD SVG 1.1//EN" "http://www.w3.org/Graphics/SVG/1.1/DTD/svg11.dtd">
<svg version="1.1" id="Layer_1" xmlns="http://www.w3.org/2000/svg" xmlns:xlink="http://www.w3.org/1999/xlink" x="0px" y="0px"
	 viewBox="72.3 347.5 479.5 97.2" enable-background="new 72.3 347.5 479.5 97.2" xml:space="preserve">
<title>FBWordmark_Hex-RGB-1024</title>
<path fill="#F23D18" d="M138.1,410.3c0-17.1,8.1-29.9,25-29.9c9.2,0,14.9,4.8,17.6,10.7v-9.3h17.7v61.1h-17.7v-9.2
	c-2.6,5.9-8.3,10.5-17.6,10.5c-16.9,0-25-12.8-25-29.9V410.3z M156.6,414.4c0,9.1,3.3,15.1,11.9,15.1c7.6,0,11.4-5.5,11.4-14.2v-6.1
	c0-8.7-3.8-14.2-11.4-14.2c-8.6,0-11.9,6-11.9,15.1V414.4z"/>
<path fill="#F23D18" d="M209.1,391.4v-9.3h17.7v61.1h-17.7V434"/>
<path fill="#FFFFFF" d="M353.7,414.1c0,17.1-8.2,29.9-25.1,29.9c-9.2,0-15.7-4.6-18.2-10.5v9.2h-17.5V351l18.5-1.7v40.8
	c2.7-5.4,8.6-9.8,17.2-9.8c16.9,0,25.1,12.8,25.1,29.9V414.1z M335.2,409.9c0-8.6-3.3-15-12.2-15c-7.6,0-11.7,5.4-11.7,14.1v6.4
	c0,8.7,4.1,14.1,11.7,14.1c8.9,0,12.2-6.4,12.2-15V409.9z"/>
<path fill="#F23D18" d="M133.1,412.4c0,17.1-8.2,29.9-25.1,29.9c-9.2,0-15.7-4.6-18.2-10.5v9.2H72.3v-91.8l18.5-1.7v40.8
	c2.7-5.4,8.6-9.8,17.2-9.8c16.9,0,25.1,12.8,25.1,29.9V412.4z M114.6,408.2c0-8.6-3.3-15-12.2-15c-7.6,0-11.7,5.4-11.7,14.1v6.4
	c0,8.7,4.1,14.1,11.7,14.1c8.9,0,12.2-6.4,12.2-15V408.2z"/>
<path fill="#FFFFFF" d="M359.9,413.8v-3.1c0-17.6,10-30.3,30.4-30.3s30.4,12.7,30.4,30.3v3.1c0,17.6-10,30.3-30.4,30.3
	S359.9,431.3,359.9,413.8z M402.3,409.4c0-8.1-3.3-14.5-12-14.5c-8.6,0-11.9,6.4-11.9,14.5v5.7c0,8.1,3.3,14.5,11.9,14.5
	s12-6.4,12-14.5V409.4z"/>
<path fill="#FFFFFF" d="M426.9,413.8v-3.1c0-17.6,10-30.3,30.4-30.3s30.4,12.7,30.4,30.3v3.1c0,17.6-10,30.3-30.4,30.3
	C436.9,444.1,426.9,431.3,426.9,413.8z M469.3,409.4c0-8.1-3.3-14.5-11.9-14.5s-11.9,6.4-11.9,14.5v5.7c0,8.1,3.3,14.5,11.9,14.5
	s11.9-6.4,11.9-14.5V409.4z"/>
<path fill="#FFFFFF" d="M513.2,410.8l18.2-29.1H551l-19.1,30.2l19.9,30.9h-19.6l-19-29.9v29.9h-18.5V351l18.5-1.7L513.2,410.8
	L513.2,410.8z"/>
<ellipse fill="#F23D18" cx="218" cy="367.6" rx="9.4" ry="8.8"/>
<g>
	<path fill="#F23D18" d="M264.4,444.7c-14.7,0-21.6-5.8-21.6-18.2v-40.3h-10.1v-15.8h10.1v-18.1l20.1-2.8v20.9h17l-1.1,15.8h-15.9
		v37.2c0,2.3,1,5.1,5.6,5.1c1.8,0,5-0.2,8.4-1.1l2.3,14.8C274.5,443.8,269,444.7,264.4,444.7z"/>
</g>
<g>
	<path fill="#AF1A0B" d="M162.4,403.1c-0.2-3.2,1.5-5.5,3.6-7.8c0.9-1.1,1.9-2.2,2.6-3.4c0.4-0.8,0.8-2,0.5-2.6
		c-0.8-1.8,0-3.2,0.9-4.5c2.5,0.2,3.7,1.5,3.7,3.9c0,0.8,0.2,1.6,0.3,2.4c0.4,2.5,4.3,4.3,7.4,3c-1-0.6-1.7-1.2-2.6-1.4
		c-2.2-0.5-3.3-1.7-3.2-3.9c0.1-2.9-1.3-4.9-3.7-6.4c-0.7-0.5-1.2-1.4-1.7-2.1c0.2-0.2,0.5-0.5,0.7-0.7c1.1,0.5,2.1,1,3.3,1.4
		c1,0.3,2.2,0.8,3,0.5c2.3-1,4.6-1.5,7-0.8c0.3,0.1,0.7-0.2,1.4-0.4c-0.5-0.6-0.7-1.3-1.1-1.3c-1.9-0.1-3.8-0.1-5.7,0
		c-1.2,0.1-2.4,0.3-3.4,0.4c0.6-1.8,1.1-3,1.5-4.3c0.3-1,0.5-2.1,1-3.8c2.3,1.6,3.8,2.8,5.4,3.6c1.5,0.8,3.3,1.1,4.9,1.7
		c0.1-0.2,0.2-0.5,0.3-0.7c-2.8-1.5-5.5-3.2-8.3-4.5c-2.3-1.1-3.3-2.6-3.2-5.2c0.1-3.1-0.2-6.1-0.4-9.2c0-0.1-0.3-0.1-0.5-0.2
		c-3,3.7,0.9,7.5-0.9,11.3c-0.7,0-1.9,0.4-2.3,0c-1.5-1.5-3.1-1.3-5.2-0.5c0.4-1.2,0.8-2.3,1.6-3.2c2.2-2.2,3-4.6,1.7-6.9
		c-0.4,0.6-1.1,1-1.1,1.5c-0.2,2.1-1.5,3.5-2.9,5c-0.8,0.8-1.1,2.1-1.3,3.2c-0.2,1.3-0.2,2.6-0.2,3.8c-0.3,0.1-0.6,0.1-0.9,0.2
		c-0.4-0.7-1-1.3-1.1-2c-0.2-3.5-2-5.7-5.1-7.1c-1.5-0.7-1.8-1.8-1.5-3.3c0.2-1.1-0.1-2.3-0.1-3.4c-2.8,2.9-2.4,6.5,0.3,8.2
		c2.1,1.4,4.8,2.4,3.2,6c-1-0.1-2.7,0.2-3.1-0.4c-1.8-2.5-4.1-1.6-6.4-1c-3.5,0.9-7.1,2.2-10.5,0.1c-0.4-0.2-1.3,0.2-1.9,0.3
		l-0.1,0.7c2.1,1.2,4.2,2.6,7,2.1c2.5-0.4,4.9-1.1,7.3-1.6c0.6-0.1,1.3,0.1,2,0.1c-0.5,1-1,1.3-1.5,1.7c-4.6,3.5-8.2,7.7-10.1,13.1
		c-1.9,5.4,0.4,8.9,6.2,9.3c5.7,0.4,11-0.9,16.1-3.8c0.5-0.3,1.1-0.3,1.7-0.5c-0.2,0.6-0.2,1.4-0.5,1.9c-1.4,1.9-3,3.8-4.5,5.7
		c-1.4,1.9-1.8,6-0.4,7.9C161.8,404.5,162.4,403.7,162.4,403.1z M150.3,391.2c-2.1-1.4-2.8-3.5-3.3-5.9c-0.1-0.4,0.6-0.5,0.7,0
		c0.4,2.1,1,4.1,2.9,5.3C151,390.9,150.7,391.5,150.3,391.2z M154.8,390c-2.8-2.4-4.4-4.7-4.9-8.4c-0.1-0.4,0.6-0.5,0.7,0
		c0.4,3.5,2,5.7,4.7,7.9C155.6,389.8,155.2,390.3,154.8,390z M158.9,388.7c-3.2-2.8-6-6.3-6.8-10.7c-0.1-0.4,0.6-0.6,0.7-0.2
		c0.7,4.2,3.4,7.6,6.6,10.4C159.7,388.5,159.3,389,158.9,388.7z"/>
</g>
</svg>
